<svg xmlns="http://www.w3.org/2000/svg" width="1000" height="390"><text x="60" y="30" font-size="15" text-anchor="start" font-weight="bold" fill="#333"><tspan xml:space="preserve">Success rate (%)</tspan></text><line x1="60" y1="300.0" x2="495" y2="300.0" stroke="#e5e5e5"/><text x="54" y="304.0" text-anchor="end" font-size="10" fill="#888">0</text><line x1="60" y1="175.0" x2="495" y2="175.0" stroke="#e5e5e5"/><text x="54" y="179.0" text-anchor="end" font-size="10" fill="#888">50</text><line x1="60" y1="50.0" x2="495" y2="50.0" stroke="#e5e5e5"/><text x="54" y="54.0" text-anchor="end" font-size="10" fill="#888">100</text><rect x="10.0" y="50.0" width="16" height="250.0" fill="#4e79a7" opacity="0.85"><title>1g/0posts: 100.0%</title></rect><text x="18.0" y="312.0" text-anchor="middle" font-size="9">100</text><rect x="404.0" y="50.0" width="16" height="250.0" fill="#4e79a7" opacity="0.85"><title>2g/0posts: 100.0%</title></rect><text x="412.0" y="312.0" text-anchor="middle" font-size="9">100</text><text x="10.0" y="316" text-anchor="middle" font-size="11" fill="#4e79a7">0 posts</text><rect x="385.0" y="140.47777777777776" width="16" height="159.52222222222224" fill="#e15759" opacity="0.85"><title>2g/500posts: 63.8%</title></rect><text x="393.0" y="312.0" text-anchor="middle" font-size="9">64</text><text x="385.0" y="316" text-anchor="middle" font-size="11" fill="#f28e2b">500 posts</text><text x="30.0" y="334" text-anchor="middle" font-size="11">1024MB</text><text x="405.0" y="334" text-anchor="middle" font-size="11">2048MB</text><text x="535" y="30" font-size="15" text-anchor="start" font-weight="bold" fill="#333"><tspan xml:space="preserve">Latency (ms)  — =p99  ..=p50</tspan></text><line x1="535" y1="300.0" x2="970" y2="300.0" stroke="#e5e5e5"/><text x="529" y="304.0" text-anchor="end" font-size="12" fill="#888">0</text><line x1="535" y1="175.0" x2="970" y2="175.0" stroke="#e5e5e5"/><text x="529" y="179.0" text-anchor="end" font-size="12" fill="#888">1717</text><line x1="535" y1="50.0" x2="970" y2="50.0" stroke="#e5e5e5"/><text x="529" y="54.0" text-anchor="end" font-size="12" fill="#888">3433</text><text x="565.0" y="334" text-anchor="middle" font-size="11">1024MB</text><text x="940.0" y="334" text-anchor="middle" font-size="11">2048MB</text><polyline points="565.0,299.63328130904375 940.0,299.58204632982074" fill="none" stroke="#4e79a7" stroke-width="2"/><polyline points="565.0,299.9372160516397 940.0,299.91704646101425" fill="none" stroke="#4e79a7" stroke-width="1.5" stroke-dasharray="4,3"/><text x="1539" y="44" font-size="11" fill="#4e79a7">|–0 posts</text><polyline points="565.0,50.0 940.0,280.11199131826265" fill="none" stroke="#f28e2b" stroke-width="2"/><polyline points="565.0,297.45907802404616 940.0,296.71368447866445" fill="none" stroke="#f28e2b" stroke-width="1.5" stroke-dasharray="4,3"/><text x="1539" y="44" font-size="11" fill="#f28e2b">|–500 posts</text><text x="30.0" y="290" font-size="12" text-anchor="start" font-weight="normal" fill="#c0392b"><tspan xml:space="preserve">OOM</tspan></text><text x="60" y="312" font-size="12" text-anchor="start" font-weight="bold" fill="#333"><tspan xml:space="preserve">mem  posts  success%   p50    p99   oom</tspan></text><text x="60" y="330" font-size="11" text-anchor="start" font-weight="normal" fill="#333"><tspan xml:space="preserve">  1g×0      100.0%     0.9     5.0   no</tspan></text><text x="60" y="348" font-size="11" text-anchor="start" font-weight="normal" fill="#333"><tspan xml:space="preserve">  1g×500     36.8%    34.9  3433.3  YES</tspan></text><text x="60" y="366" font-size="11" text-anchor="start" font-weight="normal" fill="#333"><tspan xml:space="preserve">  2g×0      100.0%     1.1     5.7   no</tspan></text><text x="60" y="384" font-size="11" text-anchor="start" font-weight="normal" fill="#333"><tspan xml:space="preserve">  2g×500     63.8%    45.1   273.1   no</tspan></text></svg>